# xmcd CD database file
#
# Track frame offsets:
#	150
#	30351
#	57355
#	83891
#	100712
#	125186
#	151000
#	185271
#	202325
#	222957
#
# Disc length: 3364 seconds
#
# Revision: 0
# Processed by: cddbd v1.5.2PL0 Copyright (c) Steve Scherf et al.
# Submitted via: CDex 1.51
#
DISCID=850d220a
DTITLE=The Klobas/Kesecker Ensemble - No Gravity
DYEAR=2007
DGENRE=Jazz
TTITLE0=Barbara's Theme
TTITLE1=No Gravity
TTITLE2=Along Came Betty
TTITLE3=Z-Magic
TTITLE4=Blues for Johnny Rae
TTITLE5=Pinot Noir
TTITLE6=Lasting Ways
TTITLE7=Five Scapes
TTITLE8=People Make The World Go 'Round
TTITLE9=Let It Rain
EXTD=YEAR: 2007
EXTT0=
EXTT1=
EXTT2=
EXTT3=
EXTT4=
EXTT5=
EXTT6=
EXTT7=
EXTT8=
EXTT9=
PLAYORDER=
